<svg width="1448" height="778" viewBox="0 0 1448 778" fill="none" xmlns="http://www.w3.org/2000/svg">
<g filter="url(#filter0_d_142_1274)">
<rect x="4" width="1440" height="900" rx="20" fill="#282828"/>
<g clip-path="url(#clip0_142_1274)">
<rect width="1440" height="900" transform="translate(4)" fill="#09090A"/>
<g opacity="0.5">
<rect x="84" y="188" width="1280" height="124" rx="8" fill="#27272A"/>
<rect x="84" y="344" width="402.286" height="310" rx="8" fill="#27272A"/>
<rect x="84" y="686" width="402.286" height="310" rx="8" fill="#27272A"/>
<rect x="522.857" y="686" width="402.286" height="310" rx="8" fill="#27272A"/>
<rect x="522.857" y="344" width="402.286" height="310" rx="8" fill="#27272A"/>
<rect x="961.714" y="344" width="402.286" height="310" rx="8" fill="#27272A"/>
</g>
<rect width="1440" height="140" transform="translate(4)" fill="#27272A"/>
<rect x="84" y="38" width="256" height="64" rx="9.14286" fill="#3F3F46"/>
<circle cx="1324" cy="70" r="40" fill="#3F3F46"/>
<rect x="512" y="58" width="120" height="24" rx="12" fill="#3F3F46"/>
<rect x="664" y="58" width="120" height="24" rx="12" fill="#3F3F46"/>
<rect x="816" y="58" width="120" height="24" rx="12" fill="#3F3F46"/>
<g filter="url(#filter1_b_142_1274)">
<rect x="4" width="1440" height="900" fill="black" fill-opacity="0.5"/>
</g>
<g filter="url(#filter2_d_142_1274)">
<path d="M756 174C756 165.163 763.163 158 772 158H1243.73C1252.56 158 1259.73 165.163 1259.73 174V537.786C1259.73 546.622 1252.56 553.786 1243.73 553.786H772C763.163 553.786 756 546.622 756 537.786V174Z" fill="#18181B"/>
<path d="M875.792 210.987H868.733V189.181H876.016C878.153 189.181 879.987 189.617 881.521 190.49C883.054 191.356 884.229 192.602 885.045 194.228C885.869 195.846 886.28 197.787 886.28 200.052C886.28 202.323 885.865 204.275 885.034 205.908C884.211 207.541 883.018 208.797 881.457 209.677C879.895 210.55 878.007 210.987 875.792 210.987ZM872.023 208.112H875.611C877.272 208.112 878.653 207.8 879.753 207.175C880.853 206.543 881.677 205.631 882.223 204.439C882.77 203.239 883.043 201.777 883.043 200.052C883.043 198.341 882.77 196.89 882.223 195.697C881.684 194.504 880.878 193.599 879.806 192.982C878.735 192.364 877.404 192.056 875.814 192.056H872.023V208.112ZM897.165 211.317C895.553 211.317 894.166 210.973 893.002 210.284C891.845 209.589 890.95 208.613 890.318 207.356C889.694 206.093 889.381 204.613 889.381 202.916C889.381 201.241 889.694 199.764 890.318 198.487C890.95 197.209 891.83 196.212 892.959 195.495C894.095 194.778 895.422 194.419 896.941 194.419C897.864 194.419 898.758 194.572 899.624 194.877C900.49 195.182 901.268 195.662 901.956 196.315C902.645 196.968 903.188 197.816 903.585 198.859C903.983 199.896 904.182 201.156 904.182 202.639V203.768H891.181V201.383H901.062C901.062 200.545 900.891 199.803 900.551 199.157C900.21 198.504 899.731 197.99 899.113 197.614C898.503 197.237 897.786 197.049 896.962 197.049C896.068 197.049 895.287 197.269 894.62 197.709C893.96 198.142 893.449 198.71 893.087 199.413C892.732 200.109 892.554 200.865 892.554 201.681V203.544C892.554 204.637 892.746 205.567 893.129 206.334C893.52 207.101 894.063 207.686 894.758 208.091C895.454 208.488 896.267 208.687 897.197 208.687C897.8 208.687 898.35 208.602 898.847 208.432C899.344 208.254 899.773 207.991 900.135 207.644C900.497 207.296 900.774 206.866 900.966 206.355L903.979 206.898C903.738 207.786 903.305 208.563 902.68 209.23C902.063 209.89 901.285 210.405 900.348 210.774C899.419 211.136 898.357 211.317 897.165 211.317ZM907.714 210.987V194.632H910.898V210.987H907.714ZM909.322 192.109C908.768 192.109 908.292 191.924 907.895 191.555C907.505 191.179 907.309 190.732 907.309 190.213C907.309 189.688 907.505 189.241 907.895 188.872C908.292 188.496 908.768 188.308 909.322 188.308C909.875 188.308 910.347 188.496 910.738 188.872C911.135 189.241 911.334 189.688 911.334 190.213C911.334 190.732 911.135 191.179 910.738 191.555C910.347 191.924 909.875 192.109 909.322 192.109ZM917.693 194.632L921.303 201L924.944 194.632H928.426L923.326 202.81L928.469 210.987H924.987L921.303 204.875L917.63 210.987H914.137L919.227 202.81L914.201 194.632H917.693ZM938.1 211.317C936.488 211.317 935.101 210.973 933.936 210.284C932.779 209.589 931.885 208.613 931.253 207.356C930.629 206.093 930.316 204.613 930.316 202.916C930.316 201.241 930.629 199.764 931.253 198.487C931.885 197.209 932.765 196.212 933.894 195.495C935.03 194.778 936.357 194.419 937.876 194.419C938.799 194.419 939.693 194.572 940.559 194.877C941.425 195.182 942.203 195.662 942.891 196.315C943.58 196.968 944.123 197.816 944.52 198.859C944.918 199.896 945.116 201.156 945.116 202.639V203.768H932.116V201.383H941.997C941.997 200.545 941.826 199.803 941.486 199.157C941.145 198.504 940.666 197.99 940.048 197.614C939.438 197.237 938.721 197.049 937.897 197.049C937.003 197.049 936.222 197.269 935.555 197.709C934.895 198.142 934.384 198.71 934.022 199.413C933.667 200.109 933.489 200.865 933.489 201.681V203.544C933.489 204.637 933.681 205.567 934.064 206.334C934.455 207.101 934.998 207.686 935.693 208.091C936.389 208.488 937.202 208.687 938.132 208.687C938.735 208.687 939.285 208.602 939.782 208.432C940.279 208.254 940.708 207.991 941.07 207.644C941.432 207.296 941.709 206.866 941.901 206.355L944.914 206.898C944.673 207.786 944.24 208.563 943.615 209.23C942.998 209.89 942.22 210.405 941.283 210.774C940.353 211.136 939.292 211.317 938.1 211.317ZM968.839 198.625L965.954 199.136C965.833 198.767 965.642 198.416 965.379 198.082C965.123 197.748 964.776 197.475 964.335 197.262C963.895 197.049 963.345 196.943 962.685 196.943C961.784 196.943 961.031 197.145 960.428 197.55C959.824 197.947 959.523 198.462 959.523 199.094C959.523 199.64 959.725 200.08 960.13 200.414C960.534 200.748 961.187 201.021 962.089 201.234L964.687 201.83C966.192 202.178 967.313 202.714 968.051 203.438C968.79 204.162 969.159 205.102 969.159 206.259C969.159 207.239 968.875 208.112 968.307 208.879C967.746 209.638 966.962 210.235 965.954 210.668C964.953 211.101 963.792 211.317 962.472 211.317C960.641 211.317 959.146 210.927 957.989 210.146C956.832 209.358 956.123 208.24 955.86 206.792L958.937 206.323C959.129 207.125 959.523 207.732 960.119 208.144C960.715 208.549 961.493 208.751 962.451 208.751C963.494 208.751 964.328 208.535 964.953 208.102C965.578 207.661 965.89 207.125 965.89 206.494C965.89 205.983 965.698 205.553 965.315 205.205C964.939 204.858 964.36 204.595 963.579 204.417L960.811 203.811C959.285 203.463 958.156 202.909 957.425 202.149C956.701 201.39 956.339 200.428 956.339 199.264C956.339 198.299 956.609 197.454 957.148 196.73C957.688 196.006 958.433 195.441 959.384 195.037C960.335 194.625 961.425 194.419 962.653 194.419C964.421 194.419 965.812 194.803 966.827 195.569C967.842 196.329 968.513 197.347 968.839 198.625ZM979.708 211.317C978.097 211.317 976.709 210.973 975.545 210.284C974.388 209.589 973.493 208.613 972.862 207.356C972.237 206.093 971.925 204.613 971.925 202.916C971.925 201.241 972.237 199.764 972.862 198.487C973.493 197.209 974.374 196.212 975.502 195.495C976.638 194.778 977.965 194.419 979.484 194.419C980.407 194.419 981.302 194.572 982.168 194.877C983.034 195.182 983.811 195.662 984.499 196.315C985.188 196.968 985.731 197.816 986.129 198.859C986.526 199.896 986.725 201.156 986.725 202.639V203.768H973.724V201.383H983.605C983.605 200.545 983.435 199.803 983.094 199.157C982.753 198.504 982.274 197.99 981.657 197.614C981.046 197.237 980.329 197.049 979.506 197.049C978.611 197.049 977.83 197.269 977.163 197.709C976.503 198.142 975.992 198.71 975.63 199.413C975.275 200.109 975.098 200.865 975.098 201.681V203.544C975.098 204.637 975.289 205.567 975.673 206.334C976.063 207.101 976.606 207.686 977.302 208.091C977.997 208.488 978.81 208.687 979.74 208.687C980.343 208.687 980.893 208.602 981.39 208.432C981.887 208.254 982.317 207.991 982.679 207.644C983.041 207.296 983.318 206.866 983.509 206.355L986.522 206.898C986.281 207.786 985.848 208.563 985.223 209.23C984.606 209.89 983.829 210.405 982.892 210.774C981.962 211.136 980.901 211.317 979.708 211.317ZM1000.62 204.204V194.632H1003.81V210.987H1000.68V208.155H1000.51C1000.13 209.028 999.531 209.755 998.701 210.338C997.877 210.912 996.852 211.2 995.624 211.2C994.573 211.2 993.643 210.969 992.834 210.508C992.032 210.039 991.4 209.347 990.939 208.432C990.484 207.516 990.257 206.384 990.257 205.035V194.632H993.441V204.652C993.441 205.766 993.75 206.653 994.367 207.314C994.985 207.974 995.787 208.304 996.773 208.304C997.37 208.304 997.962 208.155 998.552 207.857C999.148 207.558 999.641 207.108 1000.03 206.504C1000.43 205.901 1000.62 205.134 1000.62 204.204ZM1023.81 194.632V197.188H1014.57V194.632H1023.81ZM1017.1 210.987V192.737C1017.1 191.715 1017.32 190.867 1017.77 190.192C1018.22 189.511 1018.81 189.003 1019.55 188.67C1020.29 188.329 1021.09 188.158 1021.96 188.158C1022.59 188.158 1023.14 188.212 1023.59 188.318C1024.05 188.418 1024.39 188.51 1024.61 188.595L1023.86 191.172C1023.71 191.129 1023.52 191.079 1023.29 191.023C1023.05 190.959 1022.77 190.927 1022.43 190.927C1021.66 190.927 1021.11 191.119 1020.77 191.502C1020.45 191.885 1020.28 192.439 1020.28 193.163V210.987H1017.1ZM1033.5 211.317C1031.89 211.317 1030.5 210.973 1029.33 210.284C1028.18 209.589 1027.28 208.613 1026.65 207.356C1026.03 206.093 1025.71 204.613 1025.71 202.916C1025.71 201.241 1026.03 199.764 1026.65 198.487C1027.28 197.209 1028.16 196.212 1029.29 195.495C1030.43 194.778 1031.75 194.419 1033.27 194.419C1034.2 194.419 1035.09 194.572 1035.96 194.877C1036.82 195.182 1037.6 195.662 1038.29 196.315C1038.98 196.968 1039.52 197.816 1039.92 198.859C1040.32 199.896 1040.51 201.156 1040.51 202.639V203.768H1027.51V201.383H1037.39C1037.39 200.545 1037.22 199.803 1036.88 199.157C1036.54 198.504 1036.06 197.99 1035.45 197.614C1034.84 197.237 1034.12 197.049 1033.29 197.049C1032.4 197.049 1031.62 197.269 1030.95 197.709C1030.29 198.142 1029.78 198.71 1029.42 199.413C1029.06 200.109 1028.89 200.865 1028.89 201.681V203.544C1028.89 204.637 1029.08 205.567 1029.46 206.334C1029.85 207.101 1030.4 207.686 1031.09 208.091C1031.79 208.488 1032.6 208.687 1033.53 208.687C1034.13 208.687 1034.68 208.602 1035.18 208.432C1035.68 208.254 1036.11 207.991 1036.47 207.644C1036.83 207.296 1037.11 206.866 1037.3 206.355L1040.31 206.898C1040.07 207.786 1039.64 208.563 1039.01 209.23C1038.4 209.89 1037.62 210.405 1036.68 210.774C1035.75 211.136 1034.69 211.317 1033.5 211.317ZM1051.1 211.317C1049.48 211.317 1048.1 210.973 1046.93 210.284C1045.77 209.589 1044.88 208.613 1044.25 207.356C1043.62 206.093 1043.31 204.613 1043.31 202.916C1043.31 201.241 1043.62 199.764 1044.25 198.487C1044.88 197.209 1045.76 196.212 1046.89 195.495C1048.03 194.778 1049.35 194.419 1050.87 194.419C1051.79 194.419 1052.69 194.572 1053.55 194.877C1054.42 195.182 1055.2 195.662 1055.89 196.315C1056.58 196.968 1057.12 197.816 1057.52 198.859C1057.91 199.896 1058.11 201.156 1058.11 202.639V203.768H1045.11V201.383H1054.99C1054.99 200.545 1054.82 199.803 1054.48 199.157C1054.14 198.504 1053.66 197.99 1053.04 197.614C1052.43 197.237 1051.72 197.049 1050.89 197.049C1050 197.049 1049.22 197.269 1048.55 197.709C1047.89 198.142 1047.38 198.71 1047.02 199.413C1046.66 200.109 1046.48 200.865 1046.48 201.681V203.544C1046.48 204.637 1046.68 205.567 1047.06 206.334C1047.45 207.101 1047.99 207.686 1048.69 208.091C1049.38 208.488 1050.2 208.687 1051.13 208.687C1051.73 208.687 1052.28 208.602 1052.78 208.432C1053.27 208.254 1053.7 207.991 1054.07 207.644C1054.43 207.296 1054.7 206.866 1054.9 206.355L1057.91 206.898C1057.67 207.786 1057.24 208.563 1056.61 209.23C1055.99 209.89 1055.22 210.405 1054.28 210.774C1053.35 211.136 1052.29 211.317 1051.1 211.317ZM1067.77 211.306C1066.45 211.306 1065.27 210.969 1064.23 210.295C1063.2 209.613 1062.39 208.645 1061.8 207.388C1061.22 206.125 1060.93 204.609 1060.93 202.842C1060.93 201.074 1061.23 199.562 1061.81 198.306C1062.41 197.049 1063.23 196.087 1064.26 195.42C1065.3 194.753 1066.47 194.419 1067.79 194.419C1068.8 194.419 1069.62 194.59 1070.24 194.93C1070.86 195.264 1071.34 195.654 1071.68 196.102C1072.03 196.549 1072.3 196.943 1072.49 197.283H1072.69V189.181H1075.87V210.987H1072.76V208.442H1072.49C1072.3 208.79 1072.03 209.188 1071.66 209.635C1071.31 210.082 1070.82 210.472 1070.19 210.806C1069.57 211.14 1068.76 211.306 1067.77 211.306ZM1068.47 208.591C1069.39 208.591 1070.16 208.35 1070.79 207.867C1071.43 207.377 1071.91 206.7 1072.24 205.834C1072.57 204.968 1072.74 203.96 1072.74 202.81C1072.74 201.674 1072.58 200.68 1072.25 199.828C1071.92 198.976 1071.44 198.313 1070.81 197.837C1070.18 197.362 1069.4 197.124 1068.47 197.124C1067.51 197.124 1066.71 197.372 1066.07 197.869C1065.43 198.366 1064.95 199.044 1064.63 199.903C1064.31 200.762 1064.15 201.731 1064.15 202.81C1064.15 203.903 1064.31 204.886 1064.64 205.759C1064.96 206.632 1065.45 207.324 1066.08 207.835C1066.73 208.339 1067.53 208.591 1068.47 208.591ZM1080.67 210.987V189.181H1083.85V197.283H1084.04C1084.23 196.943 1084.49 196.549 1084.84 196.102C1085.19 195.654 1085.67 195.264 1086.29 194.93C1086.91 194.59 1087.72 194.419 1088.74 194.419C1090.06 194.419 1091.24 194.753 1092.27 195.42C1093.31 196.087 1094.12 197.049 1094.71 198.306C1095.31 199.562 1095.61 201.074 1095.61 202.842C1095.61 204.609 1095.31 206.125 1094.72 207.388C1094.13 208.645 1093.33 209.613 1092.3 210.295C1091.27 210.969 1090.09 211.306 1088.77 211.306C1087.78 211.306 1086.97 211.14 1086.33 210.806C1085.71 210.472 1085.22 210.082 1084.86 209.635C1084.51 209.188 1084.24 208.79 1084.04 208.442H1083.78V210.987H1080.67ZM1083.79 202.81C1083.79 203.96 1083.96 204.968 1084.29 205.834C1084.62 206.7 1085.11 207.377 1085.74 207.867C1086.37 208.35 1087.14 208.591 1088.06 208.591C1089.01 208.591 1089.8 208.339 1090.44 207.835C1091.08 207.324 1091.57 206.632 1091.89 205.759C1092.23 204.886 1092.39 203.903 1092.39 202.81C1092.39 201.731 1092.23 200.762 1091.9 199.903C1091.58 199.044 1091.1 198.366 1090.45 197.869C1089.82 197.372 1089.02 197.124 1088.06 197.124C1087.14 197.124 1086.35 197.362 1085.72 197.837C1085.08 198.313 1084.61 198.976 1084.28 199.828C1083.95 200.68 1083.79 201.674 1083.79 202.81ZM1103.94 211.349C1102.91 211.349 1101.97 211.157 1101.13 210.774C1100.29 210.384 1099.63 209.819 1099.14 209.081C1098.66 208.343 1098.42 207.438 1098.42 206.366C1098.42 205.443 1098.59 204.684 1098.95 204.087C1099.3 203.491 1099.78 203.019 1100.39 202.671C1100.99 202.323 1101.66 202.061 1102.41 201.883C1103.15 201.706 1103.91 201.571 1104.69 201.479C1105.67 201.365 1106.46 201.273 1107.07 201.202C1107.68 201.124 1108.13 201 1108.4 200.829C1108.68 200.659 1108.82 200.382 1108.82 199.999V199.924C1108.82 198.994 1108.56 198.274 1108.03 197.763C1107.51 197.252 1106.74 196.996 1105.71 196.996C1104.64 196.996 1103.79 197.234 1103.18 197.709C1102.56 198.178 1102.14 198.7 1101.91 199.275L1098.92 198.593C1099.27 197.599 1099.79 196.797 1100.47 196.187C1101.16 195.569 1101.95 195.122 1102.85 194.845C1103.74 194.561 1104.68 194.419 1105.67 194.419C1106.32 194.419 1107.01 194.497 1107.74 194.654C1108.48 194.803 1109.17 195.079 1109.81 195.484C1110.45 195.889 1110.98 196.467 1111.4 197.22C1111.81 197.965 1112.01 198.934 1112.01 200.126V210.987H1108.9V208.751H1108.78C1108.57 209.163 1108.26 209.567 1107.85 209.965C1107.44 210.362 1106.91 210.692 1106.26 210.955C1105.62 211.218 1104.84 211.349 1103.94 211.349ZM1104.63 208.794C1105.51 208.794 1106.27 208.62 1106.89 208.272C1107.52 207.924 1108 207.47 1108.33 206.909C1108.66 206.341 1108.83 205.734 1108.83 205.088V202.98C1108.72 203.094 1108.5 203.2 1108.17 203.299C1107.85 203.392 1107.48 203.473 1107.07 203.544C1106.66 203.608 1106.26 203.669 1105.87 203.725C1105.48 203.775 1105.15 203.818 1104.89 203.853C1104.27 203.931 1103.71 204.062 1103.2 204.247C1102.69 204.432 1102.29 204.698 1101.98 205.046C1101.68 205.386 1101.54 205.841 1101.54 206.409C1101.54 207.196 1101.83 207.793 1102.41 208.197C1102.99 208.595 1103.73 208.794 1104.63 208.794ZM1123.14 211.317C1121.56 211.317 1120.2 210.959 1119.05 210.242C1117.92 209.518 1117.04 208.52 1116.43 207.25C1115.82 205.979 1115.52 204.524 1115.52 202.884C1115.52 201.223 1115.83 199.757 1116.46 198.487C1117.08 197.209 1117.96 196.212 1119.1 195.495C1120.23 194.778 1121.57 194.419 1123.11 194.419C1124.35 194.419 1125.46 194.65 1126.43 195.111C1127.4 195.566 1128.19 196.205 1128.79 197.028C1129.39 197.851 1129.75 198.813 1129.86 199.913H1126.76C1126.59 199.147 1126.2 198.487 1125.59 197.933C1124.99 197.379 1124.18 197.102 1123.16 197.102C1122.28 197.102 1121.5 197.337 1120.83 197.805C1120.17 198.267 1119.66 198.927 1119.29 199.786C1118.92 200.638 1118.73 201.645 1118.73 202.81C1118.73 204.002 1118.92 205.031 1119.28 205.897C1119.64 206.763 1120.15 207.434 1120.81 207.91C1121.48 208.385 1122.26 208.623 1123.16 208.623C1123.77 208.623 1124.31 208.513 1124.8 208.293C1125.3 208.066 1125.72 207.743 1126.05 207.324C1126.39 206.905 1126.63 206.401 1126.76 205.812H1129.86C1129.75 206.87 1129.4 207.814 1128.83 208.645C1128.25 209.475 1127.48 210.128 1126.52 210.604C1125.56 211.079 1124.43 211.317 1123.14 211.317ZM1136.19 205.44L1136.17 201.553H1136.73L1143.24 194.632H1147.05L1139.62 202.511H1139.12L1136.19 205.44ZM1133.27 210.987V189.181H1136.45V210.987H1133.27ZM1143.59 210.987L1137.74 203.214L1139.93 200.989L1147.5 210.987H1143.59Z" fill="#F4F4F5"/>
<g clip-path="url(#clip1_142_1274)">
<path d="M779.987 278.042C779.987 271.418 785.357 266.049 791.981 266.049H912.007C918.63 266.049 924 271.418 924 278.042V421.964C924 428.588 918.63 433.958 912.007 433.958H791.981C785.357 433.958 779.987 428.588 779.987 421.964V278.042Z" fill="#27272A"/>
<path d="M836.877 305.018C838.376 303.519 837.252 299.021 834.721 299.021C832.19 299.021 832.379 302.019 833.878 302.019C835.378 302.019 835.378 305.018 835.378 306.517C835.378 308.016 836.877 305.018 836.877 305.018ZM830.606 307.596C832.105 306.097 830.98 301.6 828.45 301.6C825.919 301.6 826.108 304.598 827.607 304.598C829.106 304.598 829.106 307.596 829.106 309.096C829.106 310.595 830.606 307.596 830.606 307.596Z" fill="#AA8DD8"/>
<path d="M870.147 348.278C870.43 349.49 871.986 351.697 873.193 351.413C874.401 351.128 874.808 348.458 874.524 347.25C874.241 346.039 873.028 345.291 871.82 345.575C870.613 345.86 869.862 347.07 870.147 348.278V348.278ZM862 349.251C862.005 350.496 863.021 352.996 864.262 352.992C865.504 352.986 866.502 350.478 866.498 349.235C866.493 347.992 865.483 346.991 864.241 346.994C863 347 861.996 348.009 862 349.251V349.251ZM854.098 345.584C853.609 346.73 853.551 349.427 854.692 349.917C855.836 350.403 857.745 348.497 858.234 347.353C858.721 346.211 858.192 344.89 857.051 344.4C855.909 343.913 854.588 344.441 854.098 345.584V345.584ZM846.556 329.033C845.338 329.291 843.095 330.792 843.349 332.006C843.608 333.221 846.265 333.691 847.482 333.435C848.698 333.179 849.474 331.985 849.221 330.771C848.963 329.557 847.774 328.777 846.556 329.033ZM843.502 321.537C842.284 321.795 840.042 323.296 840.295 324.51C840.554 325.725 843.211 326.195 844.428 325.939C845.644 325.683 846.421 324.489 846.167 323.275C845.909 322.061 844.719 321.281 843.502 321.537V321.537Z" fill="#744EAA"/>
<path d="M866.604 349.994C870.848 349.994 873.989 348.679 874.499 348.454C877.904 346.94 879.436 342.953 877.923 339.55C876.425 336.177 872.502 334.64 869.12 336.081C868.921 336.156 866.432 337.054 864.108 335.973C861.333 334.682 859.618 331.012 858.669 328.164C858.453 327.519 858.092 326.254 857.641 324.692C854.843 314.99 853.395 312.271 851.669 309.97C846.106 302.547 837.289 302.03 832.955 302.9C829.301 303.63 826.931 307.184 827.663 310.838C828.394 314.493 831.951 316.864 835.603 316.13C835.845 316.091 838.907 315.671 840.736 317.882C841.7 319.812 843.854 325.57 844.679 328.428C845.197 330.225 845.622 331.682 845.869 332.426C848.527 340.397 852.864 345.758 858.767 348.361C861.543 349.587 864.245 349.994 866.604 349.994Z" fill="#9266CC"/>
<path d="M835.778 308.016C836.606 308.016 837.277 307.345 837.277 306.517C837.277 305.689 836.606 305.018 835.778 305.018C834.95 305.018 834.279 305.689 834.279 306.517C834.279 307.345 834.95 308.016 835.778 308.016Z" fill="#202024"/>
<path d="M872.12 348.44C871.986 348.44 871.85 348.422 871.716 348.386C870.919 348.165 870.451 347.338 870.673 346.541C871.808 342.46 869.518 339.732 869.496 339.705C868.958 339.076 869.028 338.129 869.656 337.591C870.283 337.053 871.232 337.123 871.77 337.751C871.908 337.912 875.119 341.739 873.562 347.341C873.379 348.006 872.775 348.44 872.12 348.44V348.44ZM861.327 347.596C860.96 347.596 860.592 347.463 860.301 347.192C859.697 346.625 859.666 345.676 860.231 345.072C862.457 342.692 862.409 338.786 862.408 338.745C862.384 337.918 863.036 337.228 863.865 337.204C864.678 337.196 865.384 337.832 865.406 338.661C865.412 338.87 865.516 343.814 862.421 347.123C862.126 347.437 861.726 347.596 861.327 347.596V347.596ZM848.521 334.559C847.801 334.559 847.166 334.039 847.044 333.305C846.909 332.489 847.461 331.715 848.278 331.582C852.886 330.817 855.435 328.018 855.461 327.99C856.008 327.375 856.957 327.317 857.573 327.864C858.191 328.411 858.252 329.353 857.709 329.972C857.579 330.12 854.477 333.592 848.768 334.538C848.684 334.553 848.602 334.559 848.521 334.559V334.559ZM852.9 341.841C852.263 341.841 851.672 341.433 851.47 340.794C851.221 340.006 851.659 339.162 852.447 338.913C856.484 337.634 858.264 334.67 858.282 334.64C858.702 333.925 859.619 333.685 860.333 334.105C861.048 334.523 861.286 335.444 860.868 336.156C860.774 336.318 858.477 340.148 853.353 341.769C853.201 341.818 853.048 341.841 852.9 341.841V341.841ZM845.975 325.845C845.232 325.845 844.585 325.291 844.489 324.533C844.386 323.711 844.968 322.962 845.789 322.857C849.821 322.347 852.771 319.902 852.799 319.876C853.432 319.346 854.378 319.422 854.91 320.055C855.444 320.686 855.368 321.629 854.738 322.164C854.593 322.289 851.11 325.206 846.166 325.831C846.101 325.84 846.038 325.845 845.975 325.845V325.845ZM843.245 318.698C842.608 318.698 842.017 318.289 841.815 317.647C841.568 316.857 842.005 316.016 842.795 315.767C847.488 314.293 849.171 311.731 849.24 311.623C849.683 310.931 850.606 310.716 851.302 311.156C851.999 311.593 852.218 312.503 851.788 313.203C851.698 313.349 849.53 316.795 843.693 318.629C843.545 318.675 843.394 318.698 843.245 318.698V318.698Z" fill="#744EAA"/>
<path d="M806.221 393.984V378.719H811.662C812.849 378.719 813.833 378.935 814.613 379.368C815.393 379.8 815.977 380.391 816.365 381.142C816.752 381.887 816.946 382.727 816.946 383.661C816.946 384.6 816.75 385.445 816.357 386.195C815.97 386.94 815.383 387.532 814.598 387.969C813.818 388.401 812.837 388.617 811.654 388.617H807.912V386.665H811.445C812.196 386.665 812.804 386.535 813.271 386.277C813.739 386.014 814.081 385.656 814.3 385.204C814.519 384.752 814.628 384.237 814.628 383.661C814.628 383.084 814.519 382.573 814.3 382.125C814.081 381.678 813.736 381.328 813.264 381.075C812.797 380.821 812.181 380.694 811.416 380.694H808.524V393.984H806.221ZM819.467 393.984V382.535H821.621V384.354H821.74C821.949 383.738 822.317 383.253 822.843 382.901C823.375 382.543 823.976 382.364 824.647 382.364C824.786 382.364 824.95 382.369 825.139 382.379C825.333 382.389 825.484 382.401 825.594 382.416V384.548C825.504 384.523 825.345 384.496 825.117 384.466C824.888 384.431 824.66 384.414 824.431 384.414C823.904 384.414 823.435 384.525 823.022 384.749C822.615 384.968 822.292 385.273 822.053 385.666C821.815 386.053 821.696 386.496 821.696 386.993V393.984H819.467ZM831.935 394.215C830.861 394.215 829.925 393.969 829.125 393.477C828.325 392.985 827.704 392.297 827.261 391.412C826.819 390.528 826.598 389.494 826.598 388.312C826.598 387.124 826.819 386.086 827.261 385.196C827.704 384.307 828.325 383.616 829.125 383.124C829.925 382.632 830.861 382.386 831.935 382.386C833.008 382.386 833.945 382.632 834.745 383.124C835.545 383.616 836.166 384.307 836.608 385.196C837.05 386.086 837.271 387.124 837.271 388.312C837.271 389.494 837.05 390.528 836.608 391.412C836.166 392.297 835.545 392.985 834.745 393.477C833.945 393.969 833.008 394.215 831.935 394.215ZM831.942 392.344C832.638 392.344 833.214 392.16 833.671 391.792C834.128 391.425 834.466 390.935 834.685 390.324C834.909 389.713 835.02 389.04 835.02 388.304C835.02 387.574 834.909 386.903 834.685 386.292C834.466 385.676 834.128 385.181 833.671 384.809C833.214 384.436 832.638 384.25 831.942 384.25C831.241 384.25 830.66 384.436 830.198 384.809C829.741 385.181 829.4 385.676 829.177 386.292C828.958 386.903 828.849 387.574 828.849 388.304C828.849 389.04 828.958 389.713 829.177 390.324C829.4 390.935 829.741 391.425 830.198 391.792C830.66 392.16 831.241 392.344 831.942 392.344ZM839.938 393.984V378.719H842.166V384.391H842.3C842.43 384.153 842.616 383.877 842.859 383.564C843.103 383.251 843.441 382.978 843.873 382.744C844.305 382.506 844.877 382.386 845.587 382.386C846.512 382.386 847.336 382.62 848.062 383.087C848.787 383.554 849.356 384.227 849.769 385.107C850.186 385.986 850.395 387.045 850.395 388.282C850.395 389.519 850.189 390.58 849.776 391.465C849.364 392.344 848.797 393.022 848.077 393.499C847.356 393.971 846.534 394.207 845.61 394.207C844.914 394.207 844.345 394.091 843.903 393.857C843.466 393.624 843.123 393.35 842.874 393.037C842.626 392.724 842.435 392.446 842.3 392.202H842.114V393.984H839.938ZM842.121 388.26C842.121 389.065 842.238 389.77 842.472 390.376C842.705 390.983 843.043 391.457 843.485 391.8C843.928 392.138 844.469 392.307 845.11 392.307C845.776 392.307 846.333 392.13 846.78 391.778C847.227 391.42 847.565 390.935 847.793 390.324C848.027 389.713 848.144 389.025 848.144 388.26C848.144 387.504 848.03 386.826 847.801 386.225C847.577 385.624 847.239 385.149 846.787 384.801C846.34 384.453 845.781 384.28 845.11 384.28C844.464 384.28 843.918 384.446 843.471 384.779C843.028 385.112 842.693 385.576 842.464 386.173C842.236 386.769 842.121 387.465 842.121 388.26ZM855.126 378.719V393.984H852.897V378.719H855.126ZM863.058 394.215C861.93 394.215 860.959 393.974 860.144 393.492C859.334 393.005 858.708 392.322 858.265 391.442C857.828 390.558 857.61 389.522 857.61 388.334C857.61 387.161 857.828 386.128 858.265 385.234C858.708 384.339 859.324 383.641 860.114 383.139C860.909 382.637 861.838 382.386 862.901 382.386C863.547 382.386 864.173 382.493 864.78 382.707C865.386 382.921 865.93 383.256 866.412 383.713C866.894 384.17 867.274 384.764 867.552 385.494C867.831 386.22 867.97 387.102 867.97 388.14V388.93H858.869V387.261H865.786C865.786 386.675 865.667 386.155 865.428 385.703C865.19 385.246 864.854 384.886 864.422 384.622C863.995 384.359 863.493 384.227 862.916 384.227C862.29 384.227 861.744 384.381 861.277 384.689C860.815 384.993 860.457 385.39 860.203 385.882C859.955 386.369 859.831 386.898 859.831 387.47V388.774C859.831 389.539 859.965 390.19 860.233 390.727C860.506 391.263 860.887 391.673 861.374 391.956C861.86 392.235 862.429 392.374 863.08 392.374C863.503 392.374 863.888 392.314 864.236 392.195C864.583 392.071 864.884 391.887 865.137 391.643C865.391 391.4 865.585 391.099 865.719 390.742L867.828 391.122C867.659 391.743 867.356 392.287 866.919 392.754C866.487 393.216 865.942 393.576 865.287 393.835C864.636 394.088 863.893 394.215 863.058 394.215ZM870.442 393.984V382.535H872.581V384.399H872.723C872.962 383.768 873.352 383.276 873.893 382.923C874.435 382.565 875.083 382.386 875.839 382.386C876.604 382.386 877.245 382.565 877.762 382.923C878.283 383.281 878.668 383.773 878.917 384.399H879.036C879.309 383.788 879.744 383.301 880.34 382.938C880.937 382.57 881.647 382.386 882.472 382.386C883.511 382.386 884.358 382.712 885.014 383.363C885.675 384.014 886.005 384.995 886.005 386.307V393.984H883.776V386.516C883.776 385.74 883.565 385.179 883.143 384.831C882.721 384.483 882.216 384.309 881.63 384.309C880.904 384.309 880.34 384.533 879.938 384.98C879.535 385.422 879.334 385.991 879.334 386.687V393.984H877.113V386.374C877.113 385.753 876.919 385.253 876.532 384.876C876.144 384.498 875.64 384.309 875.019 384.309C874.596 384.309 874.206 384.421 873.849 384.645C873.496 384.863 873.21 385.169 872.991 385.561C872.778 385.954 872.671 386.409 872.671 386.925V393.984H870.442ZM892.324 394.237C891.598 394.237 890.942 394.103 890.356 393.835C889.77 393.561 889.305 393.166 888.962 392.65C888.624 392.133 888.455 391.499 888.455 390.749C888.455 390.103 888.579 389.571 888.828 389.154C889.076 388.737 889.412 388.406 889.834 388.163C890.256 387.919 890.729 387.735 891.25 387.611C891.772 387.487 892.304 387.393 892.845 387.328C893.531 387.248 894.087 387.184 894.515 387.134C894.942 387.079 895.253 386.993 895.446 386.873C895.64 386.754 895.737 386.56 895.737 386.292V386.24C895.737 385.589 895.553 385.084 895.186 384.727C894.823 384.369 894.281 384.19 893.561 384.19C892.81 384.19 892.219 384.357 891.787 384.689C891.36 385.017 891.064 385.383 890.9 385.785L888.806 385.308C889.054 384.612 889.417 384.051 889.894 383.624C890.376 383.191 890.93 382.878 891.556 382.684C892.182 382.486 892.84 382.386 893.531 382.386C893.988 382.386 894.473 382.441 894.984 382.55C895.501 382.655 895.983 382.848 896.43 383.132C896.882 383.415 897.253 383.82 897.541 384.347C897.829 384.868 897.973 385.547 897.973 386.381V393.984H895.797V392.419H895.707C895.563 392.707 895.347 392.99 895.059 393.268C894.771 393.547 894.401 393.778 893.948 393.961C893.496 394.145 892.955 394.237 892.324 394.237ZM892.808 392.448C893.424 392.448 893.951 392.327 894.388 392.083C894.83 391.84 895.166 391.522 895.394 391.129C895.628 390.732 895.745 390.307 895.745 389.855V388.379C895.665 388.458 895.511 388.533 895.283 388.602C895.059 388.667 894.803 388.724 894.515 388.774C894.227 388.819 893.946 388.861 893.673 388.901C893.399 388.935 893.171 388.965 892.987 388.99C892.555 389.045 892.16 389.137 891.802 389.266C891.449 389.395 891.166 389.581 890.952 389.825C890.743 390.063 890.639 390.381 890.639 390.779C890.639 391.33 890.843 391.748 891.25 392.031C891.658 392.309 892.177 392.448 892.808 392.448Z" fill="#F4F4F5"/>
<path d="M935.994 278.042C935.994 271.418 941.363 266.049 947.987 266.049H1068.01C1074.64 266.049 1080.01 271.418 1080.01 278.042V421.964C1080.01 428.588 1074.64 433.958 1068.01 433.958H947.987C941.363 433.958 935.994 428.588 935.994 421.964V278.042Z" fill="#27272A"/>
<path d="M1024.49 316.891C1024.49 326.545 1017 328.044 1017 337.041C1017 341.685 1012.31 342.076 1008.75 342.076C1005.67 342.076 998.876 340.908 998.876 337.038C998.876 328.045 991.509 326.546 991.509 316.891C991.509 307.85 999.432 300.52 1008.12 300.52C1016.82 300.52 1024.49 307.85 1024.49 316.891Z" fill="#FFD983"/>
<path d="M1014.25 349.034C1014.25 350.275 1010.9 352.782 1008 352.782C1005.1 352.782 1001.75 350.275 1001.75 349.034C1001.75 347.793 1005.1 348.284 1008 348.284C1010.9 348.284 1014.25 347.793 1014.25 349.034Z" fill="#CCD6DD"/>
<path d="M1015.06 315.742C1014.47 315.155 1013.52 315.155 1012.94 315.742L1008 320.678L1003.06 315.742C1002.48 315.155 1001.53 315.155 1000.94 315.742C1000.36 316.328 1000.36 317.275 1000.94 317.861L1006.5 323.419V339.289C1006.5 340.118 1007.17 340.789 1008 340.789C1008.83 340.789 1009.5 340.118 1009.5 339.289V323.419L1015.06 317.861C1015.64 317.275 1015.64 316.328 1015.06 315.742V315.742Z" fill="#FFCC4D"/>
<path d="M1017 346.785C1017 348.44 1015.65 349.784 1014 349.784H1002C1000.35 349.784 999.005 348.44 999.005 346.785V337.79H1017V346.785Z" fill="#99AAB5"/>
<path d="M999.004 348.284C998.284 348.284 997.648 347.764 997.527 347.031C997.39 346.216 997.942 345.442 998.759 345.307L1016.75 342.309C1017.56 342.162 1018.34 342.724 1018.47 343.541C1018.61 344.357 1018.06 345.13 1017.24 345.265L999.251 348.263C999.168 348.278 999.084 348.284 999.004 348.284V348.284ZM999.004 342.288C998.284 342.288 997.648 341.767 997.527 341.034C997.39 340.219 997.942 339.445 998.759 339.31L1016.75 336.312C1017.56 336.166 1018.34 336.727 1018.47 337.544C1018.61 338.36 1018.06 339.133 1017.24 339.268L999.251 342.267C999.168 342.282 999.084 342.288 999.004 342.288V342.288Z" fill="#CCD6DD"/>
<path d="M987.835 378.719V393.984H985.532V378.719H987.835ZM995.296 394.207C994.372 394.207 993.547 393.971 992.821 393.499C992.101 393.022 991.534 392.344 991.122 391.465C990.714 390.58 990.511 389.519 990.511 388.282C990.511 387.045 990.717 385.986 991.129 385.107C991.547 384.227 992.118 383.554 992.844 383.087C993.569 382.62 994.391 382.386 995.311 382.386C996.021 382.386 996.593 382.506 997.025 382.744C997.462 382.978 997.8 383.251 998.039 383.564C998.282 383.877 998.471 384.153 998.605 384.391H998.739V378.719H1000.97V393.984H998.791V392.202H998.605C998.471 392.446 998.277 392.724 998.024 393.037C997.775 393.35 997.432 393.624 996.995 393.857C996.558 394.091 995.991 394.207 995.296 394.207ZM995.788 392.307C996.429 392.307 996.97 392.138 997.413 391.8C997.86 391.457 998.198 390.983 998.426 390.376C998.66 389.77 998.777 389.065 998.777 388.26C998.777 387.465 998.662 386.769 998.434 386.173C998.205 385.576 997.87 385.112 997.427 384.779C996.985 384.446 996.439 384.28 995.788 384.28C995.117 384.28 994.558 384.453 994.111 384.801C993.664 385.149 993.326 385.624 993.097 386.225C992.873 386.826 992.762 387.504 992.762 388.26C992.762 389.025 992.876 389.713 993.105 390.324C993.333 390.935 993.671 391.42 994.118 391.778C994.57 392.13 995.127 392.307 995.788 392.307ZM1009.08 394.215C1007.95 394.215 1006.98 393.974 1006.17 393.492C1005.36 393.005 1004.73 392.322 1004.29 391.442C1003.85 390.558 1003.63 389.522 1003.63 388.334C1003.63 387.161 1003.85 386.128 1004.29 385.234C1004.73 384.339 1005.35 383.641 1006.14 383.139C1006.93 382.637 1007.86 382.386 1008.93 382.386C1009.57 382.386 1010.2 382.493 1010.8 382.707C1011.41 382.921 1011.95 383.256 1012.44 383.713C1012.92 384.17 1013.3 384.764 1013.58 385.494C1013.86 386.22 1013.99 387.102 1013.99 388.14V388.93H1004.89V387.261H1011.81C1011.81 386.675 1011.69 386.155 1011.45 385.703C1011.21 385.246 1010.88 384.886 1010.45 384.622C1010.02 384.359 1009.52 384.227 1008.94 384.227C1008.31 384.227 1007.77 384.381 1007.3 384.689C1006.84 384.993 1006.48 385.39 1006.23 385.882C1005.98 386.369 1005.86 386.898 1005.86 387.47V388.774C1005.86 389.539 1005.99 390.19 1006.26 390.727C1006.53 391.263 1006.91 391.673 1007.4 391.956C1007.89 392.235 1008.45 392.374 1009.11 392.374C1009.53 392.374 1009.91 392.314 1010.26 392.195C1010.61 392.071 1010.91 391.887 1011.16 391.643C1011.42 391.4 1011.61 391.099 1011.74 390.742L1013.85 391.122C1013.68 391.743 1013.38 392.287 1012.94 392.754C1012.51 393.216 1011.97 393.576 1011.31 393.835C1010.66 394.088 1009.92 394.215 1009.08 394.215ZM1016.47 393.984V382.535H1018.7V393.984H1016.47ZM1017.59 380.769C1017.2 380.769 1016.87 380.64 1016.59 380.381C1016.32 380.118 1016.18 379.805 1016.18 379.442C1016.18 379.075 1016.32 378.762 1016.59 378.503C1016.87 378.24 1017.2 378.108 1017.59 378.108C1017.98 378.108 1018.31 378.24 1018.58 378.503C1018.86 378.762 1019 379.075 1019 379.442C1019 379.805 1018.86 380.118 1018.58 380.381C1018.31 380.64 1017.98 380.769 1017.59 380.769ZM1025.03 394.237C1024.3 394.237 1023.64 394.103 1023.06 393.835C1022.47 393.561 1022.01 393.166 1021.66 392.65C1021.33 392.133 1021.16 391.499 1021.16 390.749C1021.16 390.103 1021.28 389.571 1021.53 389.154C1021.78 388.737 1022.11 388.406 1022.54 388.163C1022.96 387.919 1023.43 387.735 1023.95 387.611C1024.47 387.487 1025.01 387.393 1025.55 387.328C1026.23 387.248 1026.79 387.184 1027.22 387.134C1027.64 387.079 1027.95 386.993 1028.15 386.873C1028.34 386.754 1028.44 386.56 1028.44 386.292V386.24C1028.44 385.589 1028.26 385.084 1027.89 384.727C1027.52 384.369 1026.98 384.19 1026.26 384.19C1025.51 384.19 1024.92 384.357 1024.49 384.689C1024.06 385.017 1023.77 385.383 1023.6 385.785L1021.51 385.308C1021.76 384.612 1022.12 384.051 1022.6 383.624C1023.08 383.191 1023.63 382.878 1024.26 382.684C1024.88 382.486 1025.54 382.386 1026.23 382.386C1026.69 382.386 1027.17 382.441 1027.69 382.55C1028.2 382.655 1028.68 382.848 1029.13 383.132C1029.58 383.415 1029.95 383.82 1030.24 384.347C1030.53 384.868 1030.67 385.547 1030.67 386.381V393.984H1028.5V392.419H1028.41C1028.27 392.707 1028.05 392.99 1027.76 393.268C1027.47 393.547 1027.1 393.778 1026.65 393.961C1026.2 394.145 1025.66 394.237 1025.03 394.237ZM1025.51 392.448C1026.13 392.448 1026.65 392.327 1027.09 392.083C1027.53 391.84 1027.87 391.522 1028.1 391.129C1028.33 390.732 1028.45 390.307 1028.45 389.855V388.379C1028.37 388.458 1028.21 388.533 1027.98 388.602C1027.76 388.667 1027.5 388.724 1027.22 388.774C1026.93 388.819 1026.65 388.861 1026.37 388.901C1026.1 388.935 1025.87 388.965 1025.69 388.99C1025.26 389.045 1024.86 389.137 1024.5 389.266C1024.15 389.395 1023.87 389.581 1023.65 389.825C1023.45 390.063 1023.34 390.381 1023.34 390.779C1023.34 391.33 1023.54 391.748 1023.95 392.031C1024.36 392.309 1024.88 392.448 1025.51 392.448Z" fill="#F4F4F5"/>
<path d="M1092 278.042C1092 271.418 1097.37 266.049 1103.99 266.049H1224.02C1230.64 266.049 1236.01 271.418 1236.01 278.042V421.964C1236.01 428.588 1230.64 433.958 1224.02 433.958H1103.99C1097.37 433.958 1092 428.588 1092 421.964V278.042Z" fill="#27272A"/>
<path d="M1190.99 318.323C1190.99 312.527 1186.29 307.829 1180.5 307.829C1178.75 307.829 1177.1 308.264 1175.65 309.019C1172.53 304.781 1167.52 302.019 1161.85 302.019C1154.16 302.019 1147.65 307.087 1145.48 314.067C1141.49 314.992 1138.52 318.556 1138.52 322.821C1138.52 327.287 1141.78 330.984 1146.05 331.685C1146.37 337.606 1151.26 342.31 1157.26 342.31C1160.52 342.31 1163.45 340.911 1165.51 338.693C1167.56 340.911 1170.49 342.31 1173.75 342.31C1179.96 342.31 1185 337.277 1185 331.066C1185 330.002 1184.84 328.976 1184.56 328C1188.34 326.413 1190.99 322.678 1190.99 318.323Z" fill="#85C8F8"/>
<path d="M1144.52 351.305C1147 351.305 1149.01 349.292 1149.01 346.808C1149.01 344.324 1147 342.31 1144.52 342.31C1142.03 342.31 1140.02 344.324 1140.02 346.808C1140.02 349.292 1142.03 351.305 1144.52 351.305Z" fill="#85C8F8"/>
<path d="M1150.59 386.352C1150.59 387.981 1150.29 389.383 1149.69 390.555C1149.1 391.723 1148.28 392.622 1147.24 393.253C1146.21 393.879 1145.03 394.192 1143.71 394.192C1142.39 394.192 1141.21 393.879 1140.17 393.253C1139.14 392.622 1138.32 391.72 1137.73 390.548C1137.13 389.375 1136.83 387.976 1136.83 386.352C1136.83 384.722 1137.13 383.323 1137.73 382.155C1138.32 380.983 1139.14 380.083 1140.17 379.457C1141.21 378.826 1142.39 378.511 1143.71 378.511C1145.03 378.511 1146.21 378.826 1147.24 379.457C1148.28 380.083 1149.1 380.983 1149.69 382.155C1150.29 383.323 1150.59 384.722 1150.59 386.352ZM1148.3 386.352C1148.3 385.109 1148.1 384.063 1147.7 383.214C1147.3 382.359 1146.76 381.713 1146.06 381.276C1145.37 380.834 1144.59 380.612 1143.71 380.612C1142.83 380.612 1142.05 380.834 1141.36 381.276C1140.67 381.713 1140.12 382.359 1139.72 383.214C1139.32 384.063 1139.12 385.109 1139.12 386.352C1139.12 387.594 1139.32 388.642 1139.72 389.497C1140.12 390.347 1140.67 390.992 1141.36 391.435C1142.05 391.872 1142.83 392.091 1143.71 392.091C1144.59 392.091 1145.37 391.872 1146.06 391.435C1146.76 390.992 1147.3 390.347 1147.7 389.497C1148.1 388.642 1148.3 387.594 1148.3 386.352ZM1160.53 389.236V382.535H1162.77V393.984H1160.58V392.001H1160.46C1160.19 392.612 1159.77 393.122 1159.19 393.529C1158.61 393.932 1157.89 394.133 1157.03 394.133C1156.3 394.133 1155.65 393.971 1155.08 393.648C1154.52 393.32 1154.08 392.836 1153.76 392.195C1153.44 391.554 1153.28 390.761 1153.28 389.817V382.535H1155.51V389.549C1155.51 390.329 1155.72 390.95 1156.16 391.412C1156.59 391.874 1157.15 392.106 1157.84 392.106C1158.26 392.106 1158.67 392.001 1159.08 391.792C1159.5 391.584 1159.85 391.268 1160.12 390.846C1160.4 390.424 1160.54 389.887 1160.53 389.236ZM1171.1 382.535V384.324H1164.85V382.535H1171.1ZM1166.53 379.793H1168.76V390.622C1168.76 391.055 1168.82 391.38 1168.95 391.599C1169.08 391.812 1169.25 391.959 1169.45 392.038C1169.66 392.113 1169.88 392.15 1170.13 392.15C1170.31 392.15 1170.46 392.138 1170.6 392.113C1170.73 392.088 1170.84 392.068 1170.91 392.053L1171.31 393.894C1171.18 393.944 1171 393.994 1170.76 394.043C1170.52 394.098 1170.23 394.128 1169.87 394.133C1169.28 394.143 1168.73 394.038 1168.23 393.82C1167.72 393.601 1167.31 393.263 1167 392.806C1166.68 392.349 1166.53 391.775 1166.53 391.084V379.793ZM1173.57 393.984V382.535H1175.72V384.354H1175.84C1176.05 383.738 1176.42 383.253 1176.95 382.901C1177.48 382.543 1178.08 382.364 1178.75 382.364C1178.89 382.364 1179.05 382.369 1179.24 382.379C1179.44 382.389 1179.59 382.401 1179.7 382.416V384.548C1179.61 384.523 1179.45 384.496 1179.22 384.466C1178.99 384.431 1178.76 384.414 1178.53 384.414C1178.01 384.414 1177.54 384.525 1177.13 384.749C1176.72 384.968 1176.39 385.273 1176.16 385.666C1175.92 386.053 1175.8 386.496 1175.8 386.993V393.984H1173.57ZM1186.04 394.215C1184.96 394.215 1184.03 393.969 1183.23 393.477C1182.43 392.985 1181.81 392.297 1181.36 391.412C1180.92 390.528 1180.7 389.494 1180.7 388.312C1180.7 387.124 1180.92 386.086 1181.36 385.196C1181.81 384.307 1182.43 383.616 1183.23 383.124C1184.03 382.632 1184.96 382.386 1186.04 382.386C1187.11 382.386 1188.05 382.632 1188.85 383.124C1189.65 383.616 1190.27 384.307 1190.71 385.196C1191.15 386.086 1191.37 387.124 1191.37 388.312C1191.37 389.494 1191.15 390.528 1190.71 391.412C1190.27 392.297 1189.65 392.985 1188.85 393.477C1188.05 393.969 1187.11 394.215 1186.04 394.215ZM1186.05 392.344C1186.74 392.344 1187.32 392.16 1187.77 391.792C1188.23 391.425 1188.57 390.935 1188.79 390.324C1189.01 389.713 1189.12 389.04 1189.12 388.304C1189.12 387.574 1189.01 386.903 1188.79 386.292C1188.57 385.676 1188.23 385.181 1187.77 384.809C1187.32 384.436 1186.74 384.25 1186.05 384.25C1185.34 384.25 1184.76 384.436 1184.3 384.809C1183.84 385.181 1183.5 385.676 1183.28 386.292C1183.06 386.903 1182.95 387.574 1182.95 388.304C1182.95 389.04 1183.06 389.713 1183.28 390.324C1183.5 390.935 1183.84 391.425 1184.3 391.792C1184.76 392.16 1185.34 392.344 1186.05 392.344Z" fill="#F4F4F5"/>
</g>
<path d="M884.255 525.026V511.942H892.369V513.642H886.229V517.628H891.787V519.321H886.229V525.026H884.255ZM898.152 525.224C897.185 525.224 896.353 525.017 895.654 524.604C894.96 524.187 894.423 523.601 894.044 522.847C893.669 522.089 893.482 521.201 893.482 520.183C893.482 519.178 893.669 518.292 894.044 517.526C894.423 516.759 894.951 516.161 895.629 515.731C896.31 515.3 897.106 515.085 898.018 515.085C898.572 515.085 899.108 515.177 899.628 515.36C900.147 515.543 900.614 515.831 901.027 516.223C901.44 516.614 901.766 517.123 902.004 517.749C902.243 518.371 902.362 519.127 902.362 520.017V520.695H894.562V519.263H900.49C900.49 518.761 900.388 518.316 900.184 517.928C899.979 517.536 899.692 517.228 899.321 517.002C898.955 516.776 898.525 516.663 898.031 516.663C897.494 516.663 897.026 516.795 896.625 517.059C896.229 517.319 895.922 517.66 895.705 518.082C895.492 518.499 895.386 518.953 895.386 519.442V520.56C895.386 521.216 895.501 521.774 895.731 522.234C895.965 522.694 896.291 523.046 896.708 523.288C897.126 523.527 897.613 523.646 898.171 523.646C898.533 523.646 898.863 523.595 899.161 523.493C899.46 523.386 899.717 523.229 899.934 523.02C900.152 522.811 900.318 522.554 900.433 522.247L902.241 522.573C902.096 523.105 901.836 523.572 901.461 523.972C901.091 524.368 900.624 524.677 900.062 524.898C899.504 525.115 898.868 525.224 898.152 525.224ZM904.482 525.026V515.213H906.392V525.026H904.482ZM905.446 513.699C905.114 513.699 904.829 513.588 904.59 513.367C904.356 513.141 904.239 512.873 904.239 512.562C904.239 512.247 904.356 511.978 904.59 511.757C904.829 511.531 905.114 511.418 905.446 511.418C905.778 511.418 906.062 511.531 906.296 511.757C906.534 511.978 906.654 512.247 906.654 512.562C906.654 512.873 906.534 513.141 906.296 513.367C906.062 513.588 905.778 513.699 905.446 513.699ZM913.542 515.213V516.746H908.182V515.213H913.542ZM909.62 512.862H911.53V522.145C911.53 522.515 911.585 522.794 911.696 522.982C911.807 523.165 911.949 523.29 912.124 523.359C912.303 523.422 912.497 523.454 912.705 523.454C912.859 523.454 912.993 523.444 913.108 523.422C913.223 523.401 913.312 523.384 913.376 523.371L913.721 524.949C913.61 524.992 913.453 525.035 913.248 525.077C913.044 525.124 912.788 525.15 912.482 525.154C911.979 525.162 911.511 525.073 911.076 524.885C910.642 524.698 910.29 524.408 910.022 524.017C909.754 523.625 909.62 523.133 909.62 522.541V512.862ZM919.683 525.224C918.763 525.224 917.96 525.013 917.275 524.592C916.589 524.17 916.057 523.58 915.678 522.822C915.299 522.064 915.109 521.178 915.109 520.164C915.109 519.146 915.299 518.256 915.678 517.494C916.057 516.731 916.589 516.139 917.275 515.718C917.96 515.296 918.763 515.085 919.683 515.085C920.603 515.085 921.406 515.296 922.092 515.718C922.777 516.139 923.31 516.731 923.689 517.494C924.068 518.256 924.257 519.146 924.257 520.164C924.257 521.178 924.068 522.064 923.689 522.822C923.31 523.58 922.777 524.17 922.092 524.592C921.406 525.013 920.603 525.224 919.683 525.224ZM919.69 523.621C920.286 523.621 920.78 523.463 921.172 523.148C921.564 522.833 921.853 522.413 922.041 521.889C922.232 521.365 922.328 520.788 922.328 520.158C922.328 519.532 922.232 518.957 922.041 518.433C921.853 517.905 921.564 517.481 921.172 517.162C920.78 516.842 920.286 516.683 919.69 516.683C919.089 516.683 918.591 516.842 918.195 517.162C917.803 517.481 917.511 517.905 917.319 518.433C917.132 518.957 917.038 519.532 917.038 520.158C917.038 520.788 917.132 521.365 917.319 521.889C917.511 522.413 917.803 522.833 918.195 523.148C918.591 523.463 919.089 523.621 919.69 523.621ZM935.284 525.224C934.334 525.224 933.517 525.009 932.831 524.579C932.149 524.144 931.626 523.546 931.259 522.784C930.893 522.021 930.71 521.148 930.71 520.164C930.71 519.168 930.897 518.288 931.272 517.526C931.647 516.759 932.175 516.161 932.856 515.731C933.538 515.3 934.341 515.085 935.265 515.085C936.01 515.085 936.675 515.224 937.258 515.501C937.842 515.773 938.312 516.157 938.67 516.651C939.032 517.145 939.247 517.722 939.315 518.382H937.456C937.354 517.922 937.12 517.526 936.754 517.194C936.391 516.861 935.906 516.695 935.297 516.695C934.765 516.695 934.298 516.836 933.898 517.117C933.502 517.394 933.193 517.79 932.971 518.305C932.75 518.816 932.639 519.421 932.639 520.12C932.639 520.835 932.748 521.453 932.965 521.972C933.182 522.492 933.489 522.894 933.885 523.18C934.285 523.465 934.756 523.608 935.297 523.608C935.659 523.608 935.987 523.542 936.281 523.41C936.579 523.273 936.828 523.08 937.028 522.828C937.233 522.577 937.375 522.275 937.456 521.921H939.315C939.247 522.556 939.041 523.122 938.696 523.621C938.351 524.119 937.889 524.511 937.309 524.796C936.734 525.081 936.059 525.224 935.284 525.224ZM945.491 525.224C944.572 525.224 943.769 525.013 943.083 524.592C942.397 524.17 941.865 523.58 941.486 522.822C941.107 522.064 940.917 521.178 940.917 520.164C940.917 519.146 941.107 518.256 941.486 517.494C941.865 516.731 942.397 516.139 943.083 515.718C943.769 515.296 944.572 515.085 945.491 515.085C946.411 515.085 947.214 515.296 947.9 515.718C948.586 516.139 949.118 516.731 949.497 517.494C949.876 518.256 950.066 519.146 950.066 520.164C950.066 521.178 949.876 522.064 949.497 522.822C949.118 523.58 948.586 524.17 947.9 524.592C947.214 525.013 946.411 525.224 945.491 525.224ZM945.498 523.621C946.094 523.621 946.588 523.463 946.98 523.148C947.372 522.833 947.661 522.413 947.849 521.889C948.041 521.365 948.136 520.788 948.136 520.158C948.136 519.532 948.041 518.957 947.849 518.433C947.661 517.905 947.372 517.481 946.98 517.162C946.588 516.842 946.094 516.683 945.498 516.683C944.897 516.683 944.399 516.842 944.003 517.162C943.611 517.481 943.319 517.905 943.128 518.433C942.94 518.957 942.847 519.532 942.847 520.158C942.847 520.788 942.94 521.365 943.128 521.889C943.319 522.413 943.611 522.833 944.003 523.148C944.399 523.463 944.897 523.621 945.498 523.621ZM952.198 525.026V515.213H954.031V516.81H954.153C954.357 516.269 954.692 515.848 955.156 515.545C955.62 515.239 956.176 515.085 956.823 515.085C957.479 515.085 958.029 515.239 958.472 515.545C958.919 515.852 959.249 516.274 959.462 516.81H959.564C959.798 516.286 960.171 515.869 960.682 515.558C961.193 515.243 961.802 515.085 962.509 515.085C963.399 515.085 964.125 515.364 964.688 515.922C965.254 516.48 965.537 517.321 965.537 518.446V525.026H963.627V518.625C963.627 517.96 963.446 517.479 963.084 517.181C962.722 516.883 962.29 516.734 961.787 516.734C961.165 516.734 960.682 516.925 960.337 517.309C959.992 517.688 959.82 518.175 959.82 518.772V525.026H957.916V518.503C957.916 517.971 957.75 517.543 957.417 517.219C957.085 516.895 956.653 516.734 956.121 516.734C955.758 516.734 955.424 516.829 955.118 517.021C954.815 517.209 954.57 517.47 954.383 517.807C954.2 518.143 954.108 518.533 954.108 518.976V525.026H952.198ZM980.774 525.23L974.207 518.663C973.683 518.139 973.333 517.53 973.159 516.836C972.989 516.142 972.991 515.452 973.165 514.766C973.34 514.076 973.687 513.475 974.207 512.964C974.739 512.44 975.346 512.093 976.027 511.923C976.713 511.748 977.397 511.748 978.078 511.923C978.764 512.098 979.373 512.445 979.905 512.964L980.774 513.808L981.643 512.964C982.18 512.445 982.789 512.098 983.47 511.923C984.151 511.748 984.833 511.748 985.514 511.923C986.2 512.093 986.809 512.44 987.342 512.964C987.861 513.475 988.208 514.076 988.383 514.766C988.557 515.452 988.557 516.142 988.383 516.836C988.213 517.53 987.865 518.139 987.342 518.663L980.774 525.23ZM996.014 528.706V515.213H997.88V516.804H998.039C998.15 516.599 998.31 516.363 998.518 516.095C998.727 515.826 999.017 515.592 999.387 515.392C999.758 515.188 1000.25 515.085 1000.86 515.085C1001.65 515.085 1002.36 515.286 1002.98 515.686C1003.6 516.086 1004.09 516.663 1004.44 517.417C1004.8 518.171 1004.98 519.078 1004.98 520.139C1004.98 521.199 1004.8 522.109 1004.45 522.867C1004.09 523.621 1003.61 524.202 1002.99 524.611C1002.37 525.015 1001.67 525.218 1000.88 525.218C1000.28 525.218 999.792 525.118 999.413 524.917C999.038 524.717 998.744 524.483 998.531 524.215C998.318 523.946 998.154 523.708 998.039 523.499H997.924V528.706H996.014ZM997.886 520.12C997.886 520.81 997.986 521.414 998.186 521.934C998.386 522.454 998.676 522.86 999.055 523.154C999.434 523.444 999.898 523.589 1000.45 523.589C1001.02 523.589 1001.5 523.437 1001.88 523.135C1002.26 522.828 1002.55 522.413 1002.75 521.889C1002.95 521.365 1003.05 520.775 1003.05 520.12C1003.05 519.472 1002.95 518.891 1002.75 518.375C1002.56 517.86 1002.27 517.453 1001.89 517.155C1001.5 516.857 1001.02 516.708 1000.45 516.708C999.894 516.708 999.426 516.851 999.042 517.136C998.663 517.421 998.376 517.82 998.18 518.331C997.984 518.842 997.886 519.438 997.886 520.12ZM1011.35 525.224C1010.38 525.224 1009.55 525.017 1008.85 524.604C1008.15 524.187 1007.62 523.601 1007.24 522.847C1006.86 522.089 1006.68 521.201 1006.68 520.183C1006.68 519.178 1006.86 518.292 1007.24 517.526C1007.62 516.759 1008.15 516.161 1008.82 515.731C1009.5 515.3 1010.3 515.085 1011.21 515.085C1011.77 515.085 1012.3 515.177 1012.82 515.36C1013.34 515.543 1013.81 515.831 1014.22 516.223C1014.63 516.614 1014.96 517.123 1015.2 517.749C1015.44 518.371 1015.56 519.127 1015.56 520.017V520.695H1007.76V519.263H1013.68C1013.68 518.761 1013.58 518.316 1013.38 517.928C1013.17 517.536 1012.89 517.228 1012.52 517.002C1012.15 516.776 1011.72 516.663 1011.23 516.663C1010.69 516.663 1010.22 516.795 1009.82 517.059C1009.42 517.319 1009.12 517.66 1008.9 518.082C1008.69 518.499 1008.58 518.953 1008.58 519.442V520.56C1008.58 521.216 1008.7 521.774 1008.93 522.234C1009.16 522.694 1009.49 523.046 1009.9 523.288C1010.32 523.527 1010.81 523.646 1011.37 523.646C1011.73 523.646 1012.06 523.595 1012.36 523.493C1012.65 523.386 1012.91 523.229 1013.13 523.02C1013.35 522.811 1013.51 522.554 1013.63 522.247L1015.44 522.573C1015.29 523.105 1015.03 523.572 1014.66 523.972C1014.29 524.368 1013.82 524.677 1013.26 524.898C1012.7 525.115 1012.06 525.224 1011.35 525.224ZM1019.59 511.942V525.026H1017.68V511.942H1019.59ZM1025.01 525.243C1024.39 525.243 1023.83 525.128 1023.33 524.898C1022.82 524.664 1022.42 524.325 1022.13 523.882C1021.84 523.44 1021.7 522.896 1021.7 522.253C1021.7 521.7 1021.8 521.244 1022.02 520.886C1022.23 520.528 1022.52 520.245 1022.88 520.037C1023.24 519.828 1023.64 519.67 1024.09 519.564C1024.54 519.457 1024.99 519.376 1025.46 519.321C1026.05 519.253 1026.52 519.197 1026.89 519.155C1027.26 519.108 1027.52 519.034 1027.69 518.931C1027.85 518.829 1027.94 518.663 1027.94 518.433V518.388C1027.94 517.83 1027.78 517.398 1027.47 517.091C1027.15 516.785 1026.69 516.631 1026.07 516.631C1025.43 516.631 1024.92 516.774 1024.55 517.059C1024.19 517.341 1023.93 517.654 1023.79 517.999L1022 517.59C1022.21 516.993 1022.52 516.512 1022.93 516.146C1023.34 515.775 1023.82 515.507 1024.35 515.341C1024.89 515.171 1025.45 515.085 1026.05 515.085C1026.44 515.085 1026.85 515.132 1027.29 515.226C1027.74 515.315 1028.15 515.481 1028.53 515.724C1028.92 515.967 1029.24 516.314 1029.48 516.766C1029.73 517.213 1029.85 517.794 1029.85 518.51V525.026H1027.99V523.684H1027.91C1027.79 523.931 1027.6 524.174 1027.36 524.413C1027.11 524.651 1026.79 524.849 1026.4 525.007C1026.02 525.164 1025.55 525.243 1025.01 525.243ZM1025.43 523.71C1025.96 523.71 1026.41 523.606 1026.78 523.397C1027.16 523.188 1027.45 522.916 1027.64 522.579C1027.84 522.238 1027.94 521.874 1027.94 521.487V520.222C1027.88 520.29 1027.74 520.354 1027.55 520.413C1027.36 520.469 1027.14 520.518 1026.89 520.56C1026.64 520.599 1026.4 520.635 1026.17 520.669C1025.93 520.699 1025.74 520.724 1025.58 520.746C1025.21 520.792 1024.87 520.871 1024.56 520.982C1024.26 521.093 1024.02 521.252 1023.84 521.461C1023.66 521.666 1023.57 521.938 1023.57 522.279C1023.57 522.752 1023.74 523.109 1024.09 523.352C1024.44 523.591 1024.89 523.71 1025.43 523.71ZM1037.31 525.026V511.942H1041.98C1042.99 511.942 1043.83 512.117 1044.5 512.466C1045.17 512.815 1045.68 513.299 1046.01 513.916C1046.34 514.53 1046.51 515.239 1046.51 516.044C1046.51 516.844 1046.34 517.549 1046 518.158C1045.67 518.763 1045.17 519.234 1044.49 519.57C1043.83 519.907 1042.98 520.075 1041.97 520.075H1038.44V518.375H1041.79C1042.43 518.375 1042.95 518.284 1043.35 518.101C1043.75 517.918 1044.05 517.651 1044.24 517.302C1044.43 516.953 1044.52 516.533 1044.52 516.044C1044.52 515.55 1044.42 515.122 1044.23 514.76C1044.04 514.398 1043.75 514.121 1043.34 513.929C1042.94 513.733 1042.42 513.635 1041.77 513.635H1039.29V525.026H1037.31ZM1043.77 519.123L1047 525.026H1044.76L1041.59 519.123H1043.77ZM1052.77 525.224C1051.85 525.224 1051.04 525.013 1050.36 524.592C1049.67 524.17 1049.14 523.58 1048.76 522.822C1048.38 522.064 1048.19 521.178 1048.19 520.164C1048.19 519.146 1048.38 518.256 1048.76 517.494C1049.14 516.731 1049.67 516.139 1050.36 515.718C1051.04 515.296 1051.85 515.085 1052.77 515.085C1053.69 515.085 1054.49 515.296 1055.17 515.718C1055.86 516.139 1056.39 516.731 1056.77 517.494C1057.15 518.256 1057.34 519.146 1057.34 520.164C1057.34 521.178 1057.15 522.064 1056.77 522.822C1056.39 523.58 1055.86 524.17 1055.17 524.592C1054.49 525.013 1053.69 525.224 1052.77 525.224ZM1052.77 523.621C1053.37 523.621 1053.86 523.463 1054.25 523.148C1054.65 522.833 1054.94 522.413 1055.12 521.889C1055.31 521.365 1055.41 520.788 1055.41 520.158C1055.41 519.532 1055.31 518.957 1055.12 518.433C1054.94 517.905 1054.65 517.481 1054.25 517.162C1053.86 516.842 1053.37 516.683 1052.77 516.683C1052.17 516.683 1051.67 516.842 1051.28 517.162C1050.89 517.481 1050.59 517.905 1050.4 518.433C1050.21 518.957 1050.12 519.532 1050.12 520.158C1050.12 520.788 1050.21 521.365 1050.4 521.889C1050.59 522.413 1050.89 522.833 1051.28 523.148C1051.67 523.463 1052.17 523.621 1052.77 523.621ZM1063.61 525.224C1062.66 525.224 1061.84 525.009 1061.15 524.579C1060.47 524.144 1059.95 523.546 1059.58 522.784C1059.21 522.021 1059.03 521.148 1059.03 520.164C1059.03 519.168 1059.22 518.288 1059.59 517.526C1059.97 516.759 1060.5 516.161 1061.18 515.731C1061.86 515.3 1062.66 515.085 1063.59 515.085C1064.33 515.085 1065 515.224 1065.58 515.501C1066.16 515.773 1066.63 516.157 1066.99 516.651C1067.35 517.145 1067.57 517.722 1067.64 518.382H1065.78C1065.68 517.922 1065.44 517.526 1065.07 517.194C1064.71 516.861 1064.23 516.695 1063.62 516.695C1063.09 516.695 1062.62 516.836 1062.22 517.117C1061.82 517.394 1061.51 517.79 1061.29 518.305C1061.07 518.816 1060.96 519.421 1060.96 520.12C1060.96 520.835 1061.07 521.453 1061.29 521.972C1061.5 522.492 1061.81 522.894 1062.21 523.18C1062.61 523.465 1063.08 523.608 1063.62 523.608C1063.98 523.608 1064.31 523.542 1064.6 523.41C1064.9 523.273 1065.15 523.08 1065.35 522.828C1065.55 522.577 1065.7 522.275 1065.78 521.921H1067.64C1067.57 522.556 1067.36 523.122 1067.02 523.621C1066.67 524.119 1066.21 524.511 1065.63 524.796C1065.06 525.081 1064.38 525.224 1063.61 525.224ZM1071.44 521.698L1071.42 519.366H1071.76L1075.67 515.213H1077.95L1073.49 519.941H1073.19L1071.44 521.698ZM1069.68 525.026V511.942H1071.59V525.026H1069.68ZM1075.88 525.026L1072.36 520.362L1073.68 519.027L1078.22 525.026H1075.88ZM1083.52 525.224C1082.55 525.224 1081.72 525.017 1081.02 524.604C1080.33 524.187 1079.79 523.601 1079.41 522.847C1079.04 522.089 1078.85 521.201 1078.85 520.183C1078.85 519.178 1079.04 518.292 1079.41 517.526C1079.79 516.759 1080.32 516.161 1081 515.731C1081.68 515.3 1082.47 515.085 1083.38 515.085C1083.94 515.085 1084.47 515.177 1084.99 515.36C1085.51 515.543 1085.98 515.831 1086.39 516.223C1086.81 516.614 1087.13 517.123 1087.37 517.749C1087.61 518.371 1087.73 519.127 1087.73 520.017V520.695H1079.93V519.263H1085.86C1085.86 518.761 1085.75 518.316 1085.55 517.928C1085.35 517.536 1085.06 517.228 1084.69 517.002C1084.32 516.776 1083.89 516.663 1083.4 516.663C1082.86 516.663 1082.39 516.795 1081.99 517.059C1081.6 517.319 1081.29 517.66 1081.07 518.082C1080.86 518.499 1080.75 518.953 1080.75 519.442V520.56C1080.75 521.216 1080.87 521.774 1081.1 522.234C1081.33 522.694 1081.66 523.046 1082.07 523.288C1082.49 523.527 1082.98 523.646 1083.54 523.646C1083.9 523.646 1084.23 523.595 1084.53 523.493C1084.83 523.386 1085.08 523.229 1085.3 523.02C1085.52 522.811 1085.68 522.554 1085.8 522.247L1087.61 522.573C1087.46 523.105 1087.2 523.572 1086.83 523.972C1086.46 524.368 1085.99 524.677 1085.43 524.898C1084.87 525.115 1084.23 525.224 1083.52 525.224ZM1094.43 515.213V516.746H1089.07V515.213H1094.43ZM1090.51 512.862H1092.42V522.145C1092.42 522.515 1092.47 522.794 1092.58 522.982C1092.69 523.165 1092.84 523.29 1093.01 523.359C1093.19 523.422 1093.38 523.454 1093.59 523.454C1093.75 523.454 1093.88 523.444 1093.99 523.422C1094.11 523.401 1094.2 523.384 1094.26 523.371L1094.61 524.949C1094.5 524.992 1094.34 525.035 1094.13 525.077C1093.93 525.124 1093.67 525.15 1093.37 525.154C1092.87 525.162 1092.4 525.073 1091.96 524.885C1091.53 524.698 1091.18 524.408 1090.91 524.017C1090.64 523.625 1090.51 523.133 1090.51 522.541V512.862ZM1103.74 517.609L1102.01 517.916C1101.93 517.694 1101.82 517.483 1101.66 517.283C1101.51 517.083 1101.3 516.919 1101.03 516.791C1100.77 516.663 1100.44 516.599 1100.04 516.599C1099.5 516.599 1099.05 516.721 1098.69 516.964C1098.33 517.202 1098.15 517.511 1098.15 517.89C1098.15 518.218 1098.27 518.482 1098.51 518.682C1098.75 518.882 1099.15 519.046 1099.69 519.174L1101.25 519.532C1102.15 519.741 1102.82 520.062 1103.26 520.496C1103.71 520.931 1103.93 521.495 1103.93 522.189C1103.93 522.777 1103.76 523.301 1103.42 523.761C1103.08 524.217 1102.61 524.575 1102.01 524.834C1101.4 525.094 1100.71 525.224 1099.92 525.224C1098.82 525.224 1097.92 524.99 1097.23 524.521C1096.53 524.049 1096.11 523.378 1095.95 522.509L1097.8 522.228C1097.91 522.709 1098.15 523.073 1098.5 523.32C1098.86 523.563 1099.33 523.684 1099.9 523.684C1100.53 523.684 1101.03 523.554 1101.4 523.295C1101.78 523.031 1101.97 522.709 1101.97 522.33C1101.97 522.023 1101.85 521.766 1101.62 521.557C1101.4 521.348 1101.05 521.191 1100.58 521.084L1098.92 520.72C1098 520.511 1097.33 520.179 1096.89 519.723C1096.45 519.268 1096.24 518.691 1096.24 517.992C1096.24 517.413 1096.4 516.906 1096.72 516.472C1097.05 516.037 1097.49 515.699 1098.06 515.456C1098.63 515.209 1099.29 515.085 1100.03 515.085C1101.09 515.085 1101.92 515.315 1102.53 515.775C1103.14 516.231 1103.54 516.842 1103.74 517.609ZM1110.26 525.224C1109.29 525.224 1108.46 525.017 1107.76 524.604C1107.07 524.187 1106.53 523.601 1106.15 522.847C1105.78 522.089 1105.59 521.201 1105.59 520.183C1105.59 519.178 1105.78 518.292 1106.15 517.526C1106.53 516.759 1107.06 516.161 1107.73 515.731C1108.42 515.3 1109.21 515.085 1110.12 515.085C1110.68 515.085 1111.21 515.177 1111.73 515.36C1112.25 515.543 1112.72 515.831 1113.13 516.223C1113.55 516.614 1113.87 517.123 1114.11 517.749C1114.35 518.371 1114.47 519.127 1114.47 520.017V520.695H1106.67V519.263H1112.6C1112.6 518.761 1112.49 518.316 1112.29 517.928C1112.09 517.536 1111.8 517.228 1111.43 517.002C1111.06 516.776 1110.63 516.663 1110.14 516.663C1109.6 516.663 1109.13 516.795 1108.73 517.059C1108.33 517.319 1108.03 517.66 1107.81 518.082C1107.6 518.499 1107.49 518.953 1107.49 519.442V520.56C1107.49 521.216 1107.61 521.774 1107.84 522.234C1108.07 522.694 1108.4 523.046 1108.81 523.288C1109.23 523.527 1109.72 523.646 1110.28 523.646C1110.64 523.646 1110.97 523.595 1111.27 523.493C1111.57 523.386 1111.82 523.229 1112.04 523.02C1112.26 522.811 1112.42 522.554 1112.54 522.247L1114.35 522.573C1114.2 523.105 1113.94 523.572 1113.57 523.972C1113.2 524.368 1112.73 524.677 1112.17 524.898C1111.61 525.115 1110.97 525.224 1110.26 525.224ZM1119.44 525.243C1118.82 525.243 1118.26 525.128 1117.76 524.898C1117.25 524.664 1116.86 524.325 1116.56 523.882C1116.27 523.44 1116.13 522.896 1116.13 522.253C1116.13 521.7 1116.23 521.244 1116.45 520.886C1116.66 520.528 1116.95 520.245 1117.31 520.037C1117.67 519.828 1118.08 519.67 1118.52 519.564C1118.97 519.457 1119.43 519.376 1119.89 519.321C1120.48 519.253 1120.96 519.197 1121.32 519.155C1121.69 519.108 1121.95 519.034 1122.12 518.931C1122.29 518.829 1122.37 518.663 1122.37 518.433V518.388C1122.37 517.83 1122.21 517.398 1121.9 517.091C1121.59 516.785 1121.12 516.631 1120.5 516.631C1119.86 516.631 1119.35 516.774 1118.98 517.059C1118.62 517.341 1118.36 517.654 1118.22 517.999L1116.43 517.59C1116.64 516.993 1116.95 516.512 1117.36 516.146C1117.77 515.775 1118.25 515.507 1118.79 515.341C1119.32 515.171 1119.89 515.085 1120.48 515.085C1120.87 515.085 1121.29 515.132 1121.72 515.226C1122.17 515.315 1122.58 515.481 1122.96 515.724C1123.35 515.967 1123.67 516.314 1123.92 516.766C1124.16 517.213 1124.29 517.794 1124.29 518.51V525.026H1122.42V523.684H1122.34C1122.22 523.931 1122.03 524.174 1121.79 524.413C1121.54 524.651 1121.22 524.849 1120.84 525.007C1120.45 525.164 1119.98 525.243 1119.44 525.243ZM1119.86 523.71C1120.39 523.71 1120.84 523.606 1121.21 523.397C1121.59 523.188 1121.88 522.916 1122.08 522.579C1122.28 522.238 1122.38 521.874 1122.38 521.487V520.222C1122.31 520.29 1122.18 520.354 1121.98 520.413C1121.79 520.469 1121.57 520.518 1121.32 520.56C1121.07 520.599 1120.83 520.635 1120.6 520.669C1120.37 520.699 1120.17 520.724 1120.01 520.746C1119.64 520.792 1119.3 520.871 1119 520.982C1118.69 521.093 1118.45 521.252 1118.27 521.461C1118.09 521.666 1118 521.938 1118 522.279C1118 522.752 1118.17 523.109 1118.52 523.352C1118.87 523.591 1119.32 523.71 1119.86 523.71ZM1131.41 515.213V516.746H1126.05V515.213H1131.41ZM1127.49 512.862H1129.4V522.145C1129.4 522.515 1129.45 522.794 1129.56 522.982C1129.67 523.165 1129.82 523.29 1129.99 523.359C1130.17 523.422 1130.36 523.454 1130.57 523.454C1130.73 523.454 1130.86 523.444 1130.98 523.422C1131.09 523.401 1131.18 523.384 1131.24 523.371L1131.59 524.949C1131.48 524.992 1131.32 525.035 1131.12 525.077C1130.91 525.124 1130.66 525.15 1130.35 525.154C1129.85 525.162 1129.38 525.073 1128.94 524.885C1128.51 524.698 1128.16 524.408 1127.89 524.017C1127.62 523.625 1127.49 523.133 1127.49 522.541V512.862Z" fill="#A1A1AA"/>
<path d="M1035.88 528.604H1132.23V529.83H1035.88V528.604Z" fill="#A1A1AA"/>
<a href="https://www.rocketseat.com.br/">
<rect fill="black" fill-opacity="0" x="153.058" y="1.10736" width="96.3591" height="21.7723"/>
</a>
<path d="M1224.77 193.231L1211.28 206.724" stroke="#A1A1AA" stroke-width="2.24878" stroke-linecap="round" stroke-linejoin="round"/>
<path d="M1224.77 206.724L1211.28 193.231" stroke="#A1A1AA" stroke-width="2.24878" stroke-linecap="round" stroke-linejoin="round"/>
</g>
<g clip-path="url(#clip2_142_1274)">
<rect x="999.603" y="30" width="260" height="80" rx="16" fill="#8257E5"/>
<path d="M1061.29 83.75H1048.12C1047.96 83.7521 1047.8 83.7224 1047.66 83.6627C1047.51 83.603 1047.38 83.5144 1047.26 83.4023C1047.15 83.2902 1047.06 83.1567 1047 83.0098C1046.94 82.8628 1046.91 82.7055 1046.92 82.5469V69.375C1046.92 65.5625 1048.43 61.9062 1051.13 59.2103C1053.82 56.5145 1057.48 55 1061.29 55C1063.18 55 1065.05 55.3718 1066.79 56.0942C1068.54 56.8166 1070.12 57.8755 1071.46 59.2103C1072.79 60.5452 1073.85 62.1299 1074.57 63.8739C1075.3 65.618 1075.67 67.4872 1075.67 69.375C1075.67 71.2628 1075.3 73.132 1074.57 74.8761C1073.85 76.6201 1072.79 78.2048 1071.46 79.5397C1070.12 80.8745 1068.54 81.9334 1066.79 82.6558C1065.05 83.3782 1063.18 83.75 1061.29 83.75Z" stroke="white" stroke-width="2.5" stroke-linecap="round" stroke-linejoin="round"/>
<path d="M1063.09 70C1063.09 70.9924 1062.28 71.7969 1061.29 71.7969C1060.3 71.7969 1059.49 70.9924 1059.49 70C1059.49 69.0076 1060.3 68.2031 1061.29 68.2031C1062.28 68.2031 1063.09 69.0076 1063.09 70Z" fill="white" stroke="white" stroke-width="0.15625"/>
<path d="M1055.59 70C1055.59 70.9924 1054.78 71.7969 1053.79 71.7969C1052.8 71.7969 1051.99 70.9924 1051.99 70C1051.99 69.0076 1052.8 68.2031 1053.79 68.2031C1054.78 68.2031 1055.59 69.0076 1055.59 70Z" fill="white" stroke="white" stroke-width="0.15625"/>
<path d="M1070.59 70C1070.59 70.9924 1069.78 71.7969 1068.79 71.7969C1067.8 71.7969 1066.99 70.9924 1066.99 70C1066.99 69.0076 1067.8 68.2031 1068.79 68.2031C1069.78 68.2031 1070.59 69.0076 1070.59 70Z" fill="white" stroke="white" stroke-width="0.15625"/>
<path d="M1096.13 80V60.6061H1108.16V63.125H1099.06V69.0341H1107.3V71.5436H1099.06V80H1096.13ZM1116.73 80.2936C1115.3 80.2936 1114.06 79.9874 1113.03 79.375C1112 78.7563 1111.2 77.8883 1110.64 76.7708C1110.09 75.6471 1109.81 74.3308 1109.81 72.822C1109.81 71.3321 1110.09 70.0189 1110.64 68.8826C1111.2 67.7462 1111.99 66.8592 1112.99 66.2216C1114 65.584 1115.18 65.2652 1116.53 65.2652C1117.35 65.2652 1118.15 65.4009 1118.92 65.6723C1119.69 65.9438 1120.38 66.3699 1120.99 66.9508C1121.6 67.5316 1122.09 68.286 1122.44 69.214C1122.79 70.1357 1122.97 71.2563 1122.97 72.5758V73.5795H1111.41V71.4583H1120.2C1120.2 70.7134 1120.04 70.0537 1119.74 69.4792C1119.44 68.8984 1119.01 68.4407 1118.46 68.1061C1117.92 67.7715 1117.28 67.6042 1116.55 67.6042C1115.75 67.6042 1115.06 67.7999 1114.47 68.1913C1113.88 68.5764 1113.42 69.0814 1113.1 69.7064C1112.79 70.3251 1112.63 70.9975 1112.63 71.7235V73.3807C1112.63 74.3529 1112.8 75.1799 1113.14 75.8617C1113.49 76.5436 1113.97 77.0644 1114.59 77.4242C1115.21 77.7778 1115.93 77.9545 1116.76 77.9545C1117.29 77.9545 1117.78 77.8788 1118.23 77.7273C1118.67 77.5694 1119.05 77.3359 1119.37 77.0265C1119.69 76.7172 1119.94 76.3352 1120.11 75.8807L1122.79 76.3636C1122.58 77.1528 1122.19 77.8441 1121.63 78.4375C1121.09 79.0246 1120.39 79.4823 1119.56 79.8106C1118.73 80.1326 1117.79 80.2936 1116.73 80.2936ZM1132.38 80.2936C1130.95 80.2936 1129.71 79.9874 1128.68 79.375C1127.65 78.7563 1126.85 77.8883 1126.29 76.7708C1125.74 75.6471 1125.46 74.3308 1125.46 72.822C1125.46 71.3321 1125.74 70.0189 1126.29 68.8826C1126.85 67.7462 1127.64 66.8592 1128.64 66.2216C1129.65 65.584 1130.83 65.2652 1132.18 65.2652C1133 65.2652 1133.8 65.4009 1134.57 65.6723C1135.34 65.9438 1136.03 66.3699 1136.64 66.9508C1137.25 67.5316 1137.74 68.286 1138.09 69.214C1138.44 70.1357 1138.62 71.2563 1138.62 72.5758V73.5795H1127.06V71.4583H1135.85C1135.85 70.7134 1135.7 70.0537 1135.39 69.4792C1135.09 68.8984 1134.66 68.4407 1134.11 68.1061C1133.57 67.7715 1132.93 67.6042 1132.2 67.6042C1131.41 67.6042 1130.71 67.7999 1130.12 68.1913C1129.53 68.5764 1129.08 69.0814 1128.75 69.7064C1128.44 70.3251 1128.28 70.9975 1128.28 71.7235V73.3807C1128.28 74.3529 1128.45 75.1799 1128.79 75.8617C1129.14 76.5436 1129.62 77.0644 1130.24 77.4242C1130.86 77.7778 1131.58 77.9545 1132.41 77.9545C1132.95 77.9545 1133.43 77.8788 1133.88 77.7273C1134.32 77.5694 1134.7 77.3359 1135.02 77.0265C1135.34 76.7172 1135.59 76.3352 1135.76 75.8807L1138.44 76.3636C1138.23 77.1528 1137.84 77.8441 1137.29 78.4375C1136.74 79.0246 1136.05 79.4823 1135.21 79.8106C1134.39 80.1326 1133.44 80.2936 1132.38 80.2936ZM1147.21 80.2841C1146.03 80.2841 1144.99 79.9842 1144.06 79.3845C1143.15 78.7784 1142.43 77.9167 1141.9 76.7992C1141.39 75.6755 1141.13 74.3277 1141.13 72.7557C1141.13 71.1837 1141.39 69.839 1141.91 68.7216C1142.44 67.6042 1143.17 66.7487 1144.09 66.1553C1145.01 65.5619 1146.06 65.2652 1147.23 65.2652C1148.13 65.2652 1148.86 65.4167 1149.4 65.7197C1149.96 66.0164 1150.39 66.3636 1150.69 66.7614C1151 67.1591 1151.24 67.5095 1151.41 67.8125H1151.58V60.6061H1154.41V80H1151.65V77.7367H1151.41C1151.24 78.0461 1151 78.3996 1150.67 78.7973C1150.36 79.1951 1149.92 79.5423 1149.37 79.839C1148.81 80.1357 1148.09 80.2841 1147.21 80.2841ZM1147.83 77.8693C1148.65 77.8693 1149.34 77.6547 1149.9 77.2254C1150.47 76.7898 1150.89 76.1869 1151.19 75.4167C1151.48 74.6465 1151.63 73.75 1151.63 72.7273C1151.63 71.7172 1151.49 70.8333 1151.19 70.0758C1150.9 69.3182 1150.48 68.7279 1149.92 68.3049C1149.35 67.8819 1148.66 67.6705 1147.83 67.6705C1146.98 67.6705 1146.27 67.8914 1145.7 68.3333C1145.13 68.7753 1144.7 69.3782 1144.41 70.142C1144.13 70.9059 1143.99 71.7677 1143.99 72.7273C1143.99 73.6995 1144.13 74.5739 1144.42 75.3504C1144.71 76.1269 1145.14 76.7424 1145.71 77.197C1146.29 77.6452 1146.99 77.8693 1147.83 77.8693ZM1158.68 80V60.6061H1161.51V67.8125H1161.68C1161.85 67.5095 1162.09 67.1591 1162.39 66.7614C1162.7 66.3636 1163.13 66.0164 1163.68 65.7197C1164.23 65.4167 1164.96 65.2652 1165.86 65.2652C1167.04 65.2652 1168.08 65.5619 1169 66.1553C1169.93 66.7487 1170.65 67.6042 1171.17 68.7216C1171.7 69.839 1171.97 71.1837 1171.97 72.7557C1171.97 74.3277 1171.71 75.6755 1171.18 76.7992C1170.66 77.9167 1169.94 78.7784 1169.02 79.3845C1168.11 79.9842 1167.06 80.2841 1165.89 80.2841C1165.01 80.2841 1164.28 80.1357 1163.72 79.839C1163.17 79.5423 1162.73 79.1951 1162.41 78.7973C1162.1 78.3996 1161.86 78.0461 1161.68 77.7367H1161.45V80H1158.68ZM1161.46 72.7273C1161.46 73.75 1161.61 74.6465 1161.9 75.4167C1162.2 76.1869 1162.63 76.7898 1163.19 77.2254C1163.75 77.6547 1164.44 77.8693 1165.25 77.8693C1166.1 77.8693 1166.81 77.6452 1167.38 77.197C1167.94 76.7424 1168.37 76.1269 1168.66 75.3504C1168.96 74.5739 1169.11 73.6995 1169.11 72.7273C1169.11 71.7677 1168.96 70.9059 1168.67 70.142C1168.39 69.3782 1167.96 68.7753 1167.39 68.3333C1166.82 67.8914 1166.11 67.6705 1165.25 67.6705C1164.43 67.6705 1163.74 67.8819 1163.17 68.3049C1162.61 68.7279 1162.18 69.3182 1161.89 70.0758C1161.6 70.8333 1161.46 71.7172 1161.46 72.7273ZM1179.38 80.322C1178.46 80.322 1177.63 80.1515 1176.88 79.8106C1176.14 79.4634 1175.55 78.9615 1175.11 78.3049C1174.68 77.6484 1174.47 76.8434 1174.47 75.8902C1174.47 75.0694 1174.62 74.3939 1174.94 73.8636C1175.26 73.3333 1175.68 72.9135 1176.22 72.6042C1176.75 72.2948 1177.35 72.0612 1178.02 71.9034C1178.68 71.7456 1179.36 71.6256 1180.04 71.5436C1180.92 71.4426 1181.62 71.3605 1182.17 71.2973C1182.71 71.2279 1183.1 71.1174 1183.35 70.9659C1183.6 70.8144 1183.72 70.5682 1183.72 70.2273V70.161C1183.72 69.334 1183.48 68.6932 1183.02 68.2386C1182.56 67.7841 1181.87 67.5568 1180.95 67.5568C1180 67.5568 1179.25 67.7683 1178.7 68.1913C1178.16 68.608 1177.78 69.072 1177.57 69.5833L1174.91 68.9773C1175.23 68.0934 1175.69 67.3801 1176.29 66.8371C1176.91 66.2879 1177.61 65.8902 1178.41 65.6439C1179.2 65.3914 1180.04 65.2652 1180.92 65.2652C1181.5 65.2652 1182.11 65.3346 1182.76 65.4735C1183.42 65.6061 1184.03 65.8523 1184.6 66.2121C1185.17 66.572 1185.64 67.0865 1186.01 67.7557C1186.38 68.4186 1186.56 69.2803 1186.56 70.3409V80H1183.79V78.0114H1183.68C1183.5 78.3775 1183.22 78.7374 1182.86 79.0909C1182.49 79.4444 1182.02 79.738 1181.45 79.9716C1180.87 80.2052 1180.18 80.322 1179.38 80.322ZM1180 78.0492C1180.78 78.0492 1181.45 77.8946 1182 77.5852C1182.57 77.2759 1182.99 76.8718 1183.28 76.3731C1183.58 75.8681 1183.73 75.3283 1183.73 74.7538V72.8788C1183.63 72.9798 1183.43 73.0745 1183.14 73.1629C1182.86 73.2449 1182.53 73.3176 1182.17 73.3807C1181.8 73.4375 1181.44 73.4912 1181.1 73.5417C1180.75 73.5859 1180.46 73.6237 1180.22 73.6553C1179.67 73.7247 1179.17 73.8415 1178.72 74.0057C1178.27 74.1698 1177.91 74.4066 1177.64 74.7159C1177.37 75.0189 1177.24 75.423 1177.24 75.928C1177.24 76.6288 1177.5 77.1591 1178.02 77.5189C1178.54 77.8725 1179.19 78.0492 1180 78.0492ZM1196.46 80.2936C1195.05 80.2936 1193.84 79.9747 1192.82 79.3371C1191.81 78.6932 1191.03 77.8062 1190.49 76.6761C1189.95 75.5461 1189.68 74.2519 1189.68 72.7936C1189.68 71.3163 1189.95 70.0126 1190.51 68.8826C1191.07 67.7462 1191.85 66.8592 1192.86 66.2216C1193.87 65.584 1195.06 65.2652 1196.43 65.2652C1197.53 65.2652 1198.52 65.4703 1199.38 65.8807C1200.25 66.2847 1200.95 66.8529 1201.48 67.5852C1202.01 68.3176 1202.33 69.173 1202.43 70.1515H1199.68C1199.53 69.4697 1199.18 68.8826 1198.64 68.3902C1198.1 67.8977 1197.38 67.6515 1196.48 67.6515C1195.69 67.6515 1195 67.8598 1194.4 68.2765C1193.82 68.6869 1193.36 69.274 1193.03 70.0379C1192.7 70.7955 1192.54 71.6919 1192.54 72.7273C1192.54 73.7879 1192.7 74.7033 1193.02 75.4735C1193.34 76.2437 1193.8 76.8403 1194.38 77.2633C1194.98 77.6862 1195.67 77.8977 1196.48 77.8977C1197.01 77.8977 1197.5 77.7999 1197.93 77.6042C1198.38 77.4021 1198.75 77.1149 1199.04 76.7424C1199.35 76.3699 1199.56 75.9217 1199.68 75.3977H1202.43C1202.33 76.3384 1202.03 77.178 1201.51 77.9167C1201 78.6553 1200.32 79.2361 1199.46 79.6591C1198.61 80.0821 1197.61 80.2936 1196.46 80.2936ZM1208.06 75.0663L1208.05 71.6098H1208.54L1214.33 65.4545H1217.72L1211.11 72.4621H1210.67L1208.06 75.0663ZM1205.46 80V60.6061H1208.29V80H1205.46ZM1214.65 80L1209.44 73.0871L1211.39 71.108L1218.12 80H1214.65Z" fill="white"/>
</g>
</g>
</g>
<defs>
<filter id="filter0_d_142_1274" x="0" y="0" width="1448" height="908" filterUnits="userSpaceOnUse" color-interpolation-filters="sRGB">
<feFlood flood-opacity="0" result="BackgroundImageFix"/>
<feColorMatrix in="SourceAlpha" type="matrix" values="0 0 0 0 0 0 0 0 0 0 0 0 0 0 0 0 0 0 127 0" result="hardAlpha"/>
<feOffset dy="4"/>
<feGaussianBlur stdDeviation="2"/>
<feComposite in2="hardAlpha" operator="out"/>
<feColorMatrix type="matrix" values="0 0 0 0 0 0 0 0 0 0 0 0 0 0 0 0 0 0 0.25 0"/>
<feBlend mode="normal" in2="BackgroundImageFix" result="effect1_dropShadow_142_1274"/>
<feBlend mode="normal" in="SourceGraphic" in2="effect1_dropShadow_142_1274" result="shape"/>
</filter>
<filter id="filter1_b_142_1274" x="-4" y="-8" width="1456" height="916" filterUnits="userSpaceOnUse" color-interpolation-filters="sRGB">
<feFlood flood-opacity="0" result="BackgroundImageFix"/>
<feGaussianBlur in="BackgroundImage" stdDeviation="4"/>
<feComposite in2="SourceAlpha" operator="in" result="effect1_backgroundBlur_142_1274"/>
<feBlend mode="normal" in="SourceGraphic" in2="effect1_backgroundBlur_142_1274" result="shape"/>
</filter>
<filter id="filter2_d_142_1274" x="724" y="134" width="567.727" height="459.786" filterUnits="userSpaceOnUse" color-interpolation-filters="sRGB">
<feFlood flood-opacity="0" result="BackgroundImageFix"/>
<feColorMatrix in="SourceAlpha" type="matrix" values="0 0 0 0 0 0 0 0 0 0 0 0 0 0 0 0 0 0 127 0" result="hardAlpha"/>
<feOffset dy="8"/>
<feGaussianBlur stdDeviation="16"/>
<feComposite in2="hardAlpha" operator="out"/>
<feColorMatrix type="matrix" values="0 0 0 0 0 0 0 0 0 0 0 0 0 0 0 0 0 0 0.15 0"/>
<feBlend mode="normal" in2="BackgroundImageFix" result="effect1_dropShadow_142_1274"/>
<feBlend mode="normal" in="SourceGraphic" in2="effect1_dropShadow_142_1274" result="shape"/>
</filter>
<clipPath id="clip0_142_1274">
<rect width="1440" height="900" fill="white" transform="translate(4)"/>
</clipPath>
<clipPath id="clip1_142_1274">
<rect width="456.026" height="167.909" fill="white" transform="translate(779.987 266.049)"/>
</clipPath>
<clipPath id="clip2_142_1274">
<rect width="260" height="80" fill="white" transform="translate(1000 30)"/>
</clipPath>
</defs>
</svg>
